<svg viewBox="0 0 200 200" xmlns="http://www.w3.org/2000/svg">
  <defs>
    <linearGradient id="bgGradient" x1="0%" y1="0%" x2="100%" y2="100%">
      <stop offset="0%" style="stop-color:#2bb7ff;stop-opacity:1" />
      <stop offset="100%" style="stop-color:#6a56ff;stop-opacity:1" />
    </linearGradient>
  </defs>
  <!-- Outer circle -->
  <circle cx="100" cy="100" r="95" fill="url(#bgGradient)" />
  <!-- Inner white circle -->
  <circle cx="100" cy="100" r="80" fill="white" />
  <!-- Cloud icon -->
  <path d="M 70 105 Q 60 105 55 115 Q 50 105 40 105 Q 30 105 30 115 Q 30 130 40 135 L 80 135 Q 90 135 90 125 Q 90 115 80 115 Z" fill="#2bb7ff" />
  <!-- Circuit lines -->
  <line x1="95" y1="95" x2="120" y2="70" stroke="#6a9fff" stroke-width="2" />
  <line x1="120" y1="70" x2="140" y2="70" stroke="#6a9fff" stroke-width="2" />
  <line x1="140" y1="70" x2="140" y2="90" stroke="#6a9fff" stroke-width="2" />
  <!-- Circuit dots -->
  <circle cx="95" cy="95" r="3" fill="#6a9fff" />
  <circle cx="120" cy="70" r="3" fill="#6a9fff" />
  <circle cx="140" cy="70" r="3" fill="#6a9fff" />
  <circle cx="140" cy="90" r="3" fill="#6a9fff" />
</svg>
